<?xml version="1.0" encoding="iso-8859-1"?>
<!-- Uploaded to: SVG Repo, www.svgrepo.com, Generator: SVG Repo Mixer Tools -->
<svg fill="#000000" height="800px" width="800px" version="1.1" id="Layer_1" xmlns="http://www.w3.org/2000/svg" xmlns:xlink="http://www.w3.org/1999/xlink" 
	 viewBox="0 0 496 496" xml:space="preserve">
<g>
	<g>
		<g>
			<path d="M486.608,318.688L377.589,144.253l9.739-5.357l-32.696-51.377l23.232-29.047C381.816,53.52,384,47.312,384,40.984V28
				c0-15.44-12.56-28-28-28s-28,12.56-28,28v17.672l-5.28-8.297L303.168,48.13C303.712,45.504,304,42.785,304,40
				c0-22.056-17.944-40-40-40c-14.271,0-26.812,7.517-33.893,18.795L217.576,6.264l-64.269,32.142
				C136.484,23.922,115.286,16,92.848,16C41.656,16,0,57.656,0,108.848c0,24.808,9.656,48.12,27.192,65.656l3.152,3.152
				c7.072,7.08,16.368,10.608,25.656,10.608s18.584-3.528,25.656-10.608c14.152-14.144,14.152-37.16,0-51.312l-3.72-3.72
				C74.112,118.792,72,113.704,72,108.28C72,97.104,81.104,88,92.28,88c4.41,0,8.591,1.417,12.06,3.995L104.05,192H96
				c-8.824,0-16,7.176-16,16v15.526C56.315,235.329,40,259.787,40,288c0,39.704,32.296,72,72,72s72-32.296,72-72
				c0-28.213-16.315-52.671-40-64.474V208c0-8.824-7.184-16-16-16h-7.95l0.245-84.394l33.419,33.419l59.567,93.599l9.327-5.13
				l46.449,79.626l-51.272,29.912C192.008,354.072,176,381.952,176,411.784C176,458.216,213.784,496,260.216,496h9.152
				c13.472,0,26.912-3.28,38.848-9.496l154.552-80.36C483.264,395.48,496,374.504,496,351.4
				C496,339.832,492.76,328.512,486.608,318.688z M168,288c0,30.872-25.128,56-56,56s-56-25.128-56-56s25.128-56,56-56
				S168,257.128,168,288z M128,217.814c-5.15-1.173-10.5-1.814-16-1.814s-10.85,0.641-16,1.814V208h32V217.814z M405.291,218.759
				C401.261,226.803,393.095,232,384,232c-13.232,0-24-10.768-24-24c0-13.089,10.538-23.759,23.573-23.989L405.291,218.759z M344,28
				c0-6.616,5.384-12,12-12c6.616,0,12,5.384,12,12v12.984c0,2.712-0.936,5.376-2.64,7.496l-19.812,24.766L344,70.814V28z M264,16
				c13.232,0,24,10.768,24,24s-10.768,24-24,24s-24-10.768-24-24S250.768,16,264,16z M224.252,35.564C224.09,37.021,224,38.5,224,40
				c0,17.095,10.783,31.713,25.901,37.427l-36.879,20.284l-47.52-47.52l48.922-24.454L224.252,35.564z M157.656,122.344
				l18.563-38.809l22.207,22.203l-37.016,20.359L157.656,122.344z M164.222,71.539l-18.563,38.808l-27.723-27.723
				c-0.173-0.173-0.353-0.334-0.528-0.503l17.875-37.369c4.238,2.819,8.229,6.077,11.91,9.76L164.222,71.539z M60.806,39.028
				l-42.461,88.77C16.799,121.678,16,115.324,16,108.848C16,77.913,34.392,51.201,60.806,39.028z M56,108.28
				c0,9.696,3.776,18.808,10.624,25.656l3.72,3.72c7.904,7.904,7.904,20.784,0,28.688c-7.672,7.656-21.016,7.656-28.688,0
				l-3.152-3.152c-4.688-4.688-8.685-9.883-11.963-15.452L81.5,32.844C85.205,32.293,88.992,32,92.848,32
				c9.829,0,19.366,1.85,28.238,5.351l-17.443,36.466C100.024,72.628,96.202,72,92.28,72C72.272,72,56,88.272,56,108.28z
				 M171.328,138.896L317.28,58.624l47.392,74.48L218.72,213.376L171.328,138.896z M290.952,314.88l-54.311-93.105l126.909-69.801
				l10.762,17.219C356.922,173.536,344,189.285,344,208c0,22.056,17.944,40,40,40c12.07,0,23.156-5.45,30.576-14.384l37.543,60.069
				C425.691,304.746,408,330.668,408,360c0,17.595,6.366,34.321,17.76,47.346l-114.365,59.477C311.792,463.198,312,459.585,312,456
				c0-51.571-37.738-94.49-87.046-102.61c0.298-0.18,0.592-0.366,0.894-0.542L290.952,314.88z M260.216,480
				C222.6,480,192,449.4,192,411.784c0-16.195,5.826-31.666,15.944-43.782c0.019,0,0.037-0.002,0.056-0.002c48.52,0,88,39.48,88,88
				c0,6.409-0.776,12.956-2.286,19.504c-7.752,2.954-16.041,4.496-24.346,4.496H260.216z M455.392,391.936l-14.886,7.742
				C429.968,389.199,424,375.017,424,360c0-23.694,14.856-44.531,36.744-52.515l12.312,19.699
				c4.536,7.272,6.944,15.648,6.944,24.216C480,368.512,470.568,384.048,455.392,391.936z"/>
			<path d="M320,248c0-13.232-10.768-24-24-24s-24,10.768-24,24s10.768,24,24,24S320,261.232,320,248z M288,248c0-4.416,3.584-8,8-8
				c4.416,0,8,3.584,8,8c0,4.416-3.584,8-8,8C291.584,256,288,252.416,288,248z"/>
			<path d="M304,336c0,17.648,14.352,32,32,32s32-14.352,32-32s-14.352-32-32-32S304,318.352,304,336z M336,320
				c8.816,0,16,7.176,16,16c0,8.824-7.184,16-16,16c-8.824,0-16-7.176-16-16C320,327.176,327.176,320,336,320z"/>
			<path d="M400,312c13.232,0,24-10.768,24-24s-10.768-24-24-24s-24,10.768-24,24S386.768,312,400,312z M400,280
				c4.416,0,8,3.584,8,8c0,4.416-3.584,8-8,8c-4.416,0-8-3.584-8-8C392,283.584,395.584,280,400,280z"/>
			<path d="M72,288h16c0-13.232,10.768-24,24-24v-16C89.944,248,72,265.944,72,288z"/>
		</g>
	</g>
</g>
</svg>