<?xml version="1.0" encoding="iso-8859-1"?>
<!-- Uploaded to: SVG Repo, www.svgrepo.com, Generator: SVG Repo Mixer Tools -->
<!DOCTYPE svg PUBLIC "-//W3C//DTD SVG 1.1//EN" "http://www.w3.org/Graphics/SVG/1.1/DTD/svg11.dtd">
<svg fill="#000000" version="1.1" id="Capa_1" xmlns="http://www.w3.org/2000/svg" xmlns:xlink="http://www.w3.org/1999/xlink" 
	 width="800px" height="800px" viewBox="0 0 45.651 45.652"
	 xml:space="preserve">
<g>
	<g>
		<path d="M31.842,39.624l-18.486,0.037c-0.657,0.002-1.187,0.533-1.186,1.189l0.002,1.337c0,0.315,0.127,0.617,0.35,0.84
			c0.224,0.224,0.526,0.348,0.841,0.348l7.05-0.016c0,0.003,0,0.007,0,0.011c0.003,1.196,0.986,2.168,2.195,2.164
			c1.208-0.001,2.188-0.975,2.186-2.174c0-0.004,0-0.008,0-0.01l7.058-0.016c0.656-0.001,1.188-0.534,1.187-1.189l-0.002-1.337
			C33.03,40.152,32.498,39.623,31.842,39.624z"/>
		<path d="M45.357,2.437c-0.565-0.909-1.763-1.188-2.674-0.621l-6.345,3.953L37.4,1.966c0.218-0.774-0.236-1.578-1.011-1.794
			c-0.773-0.218-1.578,0.236-1.794,1.011l-1.917,6.866l-4.334,2.7l1.91-5.607c0.26-0.762-0.147-1.588-0.908-1.848
			c-0.764-0.261-1.589,0.147-1.848,0.909l-2.727,8.004l6.617-1.688c1.082-0.277,2.297-0.028,3.188,0.665
			c0.262,0.202,0.491,0.44,0.688,0.701l7.438,0.073c0.004,0,0.009,0,0.014,0c0.797,0,1.448-0.642,1.456-1.442
			c0.008-0.804-0.638-1.462-1.442-1.47l-4.248-0.042l6.253-3.896C45.646,4.542,45.925,3.345,45.357,2.437z"/>
		<path d="M36.807,14.9l-0.77-0.068v2.922l0.517,0.046c0.043,0.004,0.079,0.006,0.121,0.006c0.748,0,1.38-0.571,1.446-1.329
			C38.189,15.674,37.608,14.969,36.807,14.9z"/>
		<path d="M14.451,32.146c0.211,0,0.416-0.047,0.602-0.132c-0.02,0.207-0.03,0.414-0.032,0.624c-0.032,3.588-1.084,5.008-1.07,5.54
			l17.302,0.161c0,0-1.044-3.159-1.022-5.583c0.011-1.172-0.249-2.287-0.721-3.285l-0.015,0.035
			c-0.355,0.956-1.246,1.593-2.274,1.626l-0.045-0.01h-0.028c-0.995,0-1.896-0.576-2.293-1.479l-2.823-6.36l-0.796,1.798
			l0.394,0.086c-0.001,0-0.002,0-0.004,0.001l-0.39-0.081l-0.071,0.166l0,0l-1.957,4.399c-0.403,0.903-1.302,1.472-2.291,1.472
			h-0.049l-0.032,0.01c-1.024-0.033-1.915-0.671-2.269-1.633l-0.068-0.184l-0.188,0.077c-0.297,0.119-0.612,0.182-0.932,0.182
			c-0.678,0-1.336-0.279-1.805-0.768c-0.083-0.087-0.159-0.178-0.228-0.271l-3.128-0.671l2.857-1.78
			c0.004-0.01,0.009-0.021,0.014-0.032l0.958-2.16c-0.095,0.007-0.191,0.014-0.287,0.014c-0.819,0-1.627-0.278-2.274-0.78
			c-0.145-0.113-0.281-0.236-0.407-0.369l-2.205,1.372l1.367-2.795c-0.118-0.364-0.175-0.746-0.175-1.134v-3.517
			c-0.48,0.041-0.963,0.334-1.196,0.814l-4.64,9.526l-1.314,0.818c-0.91,0.566-1.189,1.765-0.622,2.674
			c0.368,0.592,1,0.914,1.648,0.914c0.351,0,0.705-0.094,1.025-0.293l1.695-1.056l9.482,2.031
			C14.248,32.136,14.351,32.146,14.451,32.146z"/>
		<path d="M20.228,11.943c0.036-0.57-0.27-1.133-0.816-1.397c-0.725-0.352-1.595-0.051-1.946,0.672l-0.227,0.466l2.278,0.58
			C19.741,12.135,19.979,12.027,20.228,11.943z"/>
		<path d="M26.63,28.868c0.09,0.206,0.294,0.335,0.518,0.335c0.005,0,0.011,0,0.017,0c0.229,0,0.432-0.154,0.512-0.367l0.56-1.518
			c0.054-0.144,0.161-0.259,0.302-0.32c0.072-0.032,0.15-0.049,0.229-0.049c0.071,0,0.144,0.016,0.211,0.041l1.498,0.603
			c0.07,0.029,0.143,0.043,0.213,0.043c0.15,0,0.297-0.06,0.405-0.173c0.16-0.165,0.204-0.411,0.11-0.621l-1.549-3.492l-4.916-1.254
			c-0.282,0.184-0.59,0.333-0.915,0.441L26.63,28.868z"/>
		<path d="M14.412,23.347l-1.549,3.494c-0.093,0.21-0.05,0.456,0.11,0.621c0.109,0.113,0.256,0.173,0.407,0.173
			c0.071,0,0.143-0.014,0.21-0.041l1.498-0.604c0.068-0.027,0.14-0.041,0.211-0.041c0.078,0,0.156,0.018,0.229,0.049
			c0.139,0.062,0.248,0.179,0.301,0.32l0.559,1.516c0.08,0.217,0.282,0.369,0.512,0.369c0.006,0,0.011,0,0.017,0
			c0.223,0,0.427-0.13,0.518-0.335l2.806-6.331c-0.326-0.108-0.633-0.258-0.917-0.441L14.412,23.347z"/>
		<path d="M10.672,21.592c0.43,0.335,0.993,0.452,1.521,0.316l5.7-1.45c-0.248-0.521-0.38-1.101-0.38-1.713v-3.016
			c0-0.67,0.161-1.303,0.455-1.858L12.198,12.4c-0.528-0.134-1.094-0.018-1.523,0.316c-0.431,0.335-0.688,0.849-0.688,1.394V20.2
			C9.986,20.744,10.243,21.257,10.672,21.592z"/>
		<path d="M33.384,12.717c-0.429-0.334-0.989-0.452-1.517-0.315l-5.754,1.47c0.295,0.556,0.476,1.188,0.476,1.858v3.016
			c0,0.612-0.152,1.192-0.399,1.713l5.688,1.451c0.527,0.135,1.082,0.017,1.511-0.317c0.431-0.335,0.676-0.848,0.676-1.395v-6.087
			C34.062,13.565,33.812,13.052,33.384,12.717z"/>
		<path d="M19.436,15.72v2.996c0,1.133,0.919,2.052,2.052,2.052h1.074c1.133,0,2.052-0.919,2.052-2.052V15.72
			c0-1.133-0.918-2.052-2.052-2.052h-1.074C20.354,13.668,19.436,14.587,19.436,15.72z"/>
	</g>
</g>
</svg>