<?xml version="1.0" encoding="iso-8859-1"?>
<!-- Uploaded to: SVG Repo, www.svgrepo.com, Generator: SVG Repo Mixer Tools -->
<svg fill="#000000" version="1.1" id="Layer_1" xmlns="http://www.w3.org/2000/svg" xmlns:xlink="http://www.w3.org/1999/xlink" 
	 viewBox="0 0 489.472 489.472" xml:space="preserve">
<g>
	<g>
		<g>
			<path d="M435.264,328.84c-0.016-0.136-0.064-0.584-0.112-0.992c-0.016-0.168,0-0.336-0.024-0.504
				c6.296-11.656,9.608-24.696,9.608-37.872c0-13.176-3.312-26.216-9.6-37.872c1.352-13.176-0.576-26.488-5.624-38.664
				c-5.048-12.168-13.088-22.944-23.36-31.312c-1.904-6.36-4.616-12.44-8.08-18.168l19.56-19.56l-39.008-23.408
				c5.448-11.264,10.112-26.768,10.112-47.016c0-47.696-25.848-69.304-26.944-70.2l-4.008-3.264l-94.68,47.336
				c-5.208-3.672-11.528-5.872-18.368-5.872c-6.848,0-13.16,2.2-18.368,5.872L131.688,0l-4.008,3.264
				c-1.104,0.904-26.944,22.512-26.944,70.208c0,20.248,4.664,35.752,10.112,47L71.84,143.88l19.56,19.56
				c-3.464,5.736-6.176,11.816-8.08,18.168c-10.272,8.368-18.312,19.136-23.36,31.312c-4.856,11.712-6.744,24.48-5.688,37.168
				l-0.072,0.008c0.016,0.136,0.064,0.584,0.112,0.992c0.024,0.176,0.008,0.344,0.024,0.512c-6.288,11.656-9.6,24.696-9.6,37.872
				c0,13.176,3.312,26.216,9.6,37.872c-1.352,13.176,0.576,26.488,5.624,38.664c5.048,12.168,13.088,22.944,23.36,31.312
				c3.8,12.696,10.672,24.248,19.992,33.568s20.872,16.192,33.568,19.992c8.368,10.272,19.136,18.312,31.312,23.36
				c11.704,4.848,24.44,6.752,37.168,5.688l0.008,0.072c0.136-0.016,0.584-0.064,0.992-0.112c0.168-0.016,0.336,0,0.504-0.024
				c11.656,6.296,24.688,9.608,37.872,9.608c13.176,0,26.216-3.312,37.872-9.6c13.216,1.352,26.496-0.584,38.664-5.624
				c12.168-5.048,22.944-13.088,31.312-23.36c12.696-3.8,24.248-10.672,33.568-19.992s16.192-20.872,19.992-33.568
				c10.272-8.368,18.312-19.136,23.36-31.312c4.856-11.712,6.744-24.48,5.688-37.168L435.264,328.84z M275.6,65.472
				c-0.496-1.912-1.136-3.752-1.96-5.504l81.504-40.752c6.008,6.944,17.592,24.224,17.592,54.256
				c0,30.056-11.6,47.344-17.592,54.256L273.64,86.976c0.824-1.752,1.464-3.6,1.96-5.504h17.136v-16H275.6z M271.384,103.744
				l38.84,54.376l13.016-9.296l-21.28-29.792l55.824,27.912l4.008-3.264c0.4-0.328,4.08-3.432,8.592-9.488l21.456,12.864
				l-80.528,80.528L256.08,103.296c2.504-0.96,4.864-2.176,7.016-3.696L271.384,103.744z M358.736,289.328
				c-2.264,3.264-4.168,6.736-5.672,10.384c-4.392,10.6-5.376,22.232-2.928,33.368c-3.464,2.168-6.512,4.584-9.232,7.304
				c-8,8-13.312,18.32-15.32,29.576c-3.952,0.704-7.8,1.824-11.488,3.344c-10.56,4.384-19.464,11.872-25.6,21.44
				c-15.2-3.304-31.072,0-43.616,8.728c-3.264-2.264-6.736-4.168-10.384-5.672c-10.592-4.392-22.232-5.392-33.368-2.928
				c-2.168-3.464-4.584-6.512-7.304-9.232c-8.008-8.008-18.328-13.32-29.576-15.328c-0.704-3.952-1.824-7.792-3.344-11.48
				c-4.384-10.56-11.872-19.464-21.44-25.6c0.84-3.896,1.272-7.824,1.272-11.76c0-11.432-3.52-22.52-10-31.856
				c2.264-3.264,4.16-6.736,5.672-10.384c4.392-10.6,5.376-22.224,2.928-33.368c3.464-2.168,6.512-4.584,9.24-7.304
				c3.008-3.016,5.608-6.4,7.832-10.104l26.904,26.904l31.12-70.024c10.824-0.336,21.288-3.712,30.16-9.872
				c3.264,2.264,6.736,4.168,10.376,5.672c6.28,2.6,12.984,3.92,19.984,4.024l31.2,70.192L333,228.504
				c4.352,6.88,10.112,12.776,17,17.2c-0.832,3.904-1.264,7.832-1.264,11.768C348.736,268.904,352.248,279.992,358.736,289.328z
				 M222.048,168.216l22.688-51.04l11,24.752c-9.2,7.64-14.976,15.056-16.96,17.768
				C233.912,163.888,228.168,166.736,222.048,168.216z M256.088,163.776c1.728-1.936,3.888-4.184,6.456-6.536l4.904,11.04
				c-2.184-0.472-4.32-1.064-6.352-1.912C259.36,165.648,257.712,164.744,256.088,163.776z M244.736,57.472c8.816,0,16,7.184,16,16
				s-7.184,16-16,16c-8.824,0-16-7.184-16-16S235.912,57.472,244.736,57.472z M134.328,19.216l81.504,40.752
				c-0.824,1.752-1.464,3.6-1.96,5.504h-49.136v16h49.136c0.496,1.912,1.136,3.752,1.96,5.504l-81.504,40.752
				c-6.008-6.944-17.592-24.224-17.592-54.256C116.736,43.416,128.336,26.128,134.328,19.216z M119.088,134.192
				c4.512,6.056,8.192,9.16,8.592,9.488l4.008,3.264l55.824-27.912l-21.28,29.792l13.016,9.296l38.84-54.376l8.288-4.144
				c2.16,1.52,4.52,2.736,7.016,3.696L178.16,227.584l-80.528-80.528L119.088,134.192z M98.2,187.84
				c1.184-4.368,2.88-8.576,4.992-12.608l41.232,41.24c-1.904,4.048-4.168,7.776-7.168,10.776
				c-2.896,2.896-6.448,5.352-10.848,7.504l-6.4,3.12l2.36,6.72c3.272,9.336,3.008,19.472-0.744,28.528
				c-0.72,1.728-1.616,3.368-2.584,4.984c-9.336-8.36-26.304-27.032-26.304-52.632C92.736,211.776,97.432,191.136,98.2,187.84z
				 M74.744,219.056c0.784-1.904,1.768-3.712,2.736-5.528c-0.448,4.12-0.744,8.216-0.744,11.944
				c0,40.216,31.824,65.328,38.232,69.968c6.272,7.28,9.768,16.48,9.768,26.032c0,1.776-0.208,3.56-0.456,5.336
				c-42.968-16.136-52.288-64.904-53.856-75.968C69.16,240.016,70.608,229.056,74.744,219.056z M143.208,436.032
				c-10.832-2.928-20.712-8.584-28.584-16.448c-7.96-7.96-13.688-17.976-16.576-28.96l-0.696-2.672l-2.2-1.664
				c-9.04-6.872-16.104-16-20.408-26.4c-4.304-10.4-5.776-21.84-4.224-33.096l0.368-2.736l-1.392-2.392
				c-5.728-9.8-8.76-20.936-8.76-32.192c0-3.176,0.304-6.336,0.776-9.464c8.552,23.56,26.832,53.984,65.288,64.448
				c8.744,4.296,15.608,11.56,19.32,20.496c1.688,4.088,2.68,8.464,2.936,13.008l0.352,6.312c-4.32-4.192-10.192-6.8-16.672-6.8
				c-13.232,0-24,10.768-24,24s10.768,24,24,24s24-10.768,24-24c0-6.336-2.512-12.064-6.536-16.352l6.368,0.368
				c9.912,0.584,19.128,4.656,25.936,11.464c2.896,2.896,5.352,6.448,7.504,10.848l3.12,6.4l6.72-2.36
				c9.344-3.272,19.464-3,28.528,0.744c1.728,0.72,3.368,1.624,4.984,2.584c-8.352,9.336-27.024,26.304-52.624,26.304
				C167.152,441.472,146.752,436.856,143.208,436.032z M140.736,401.472c0,4.416-3.584,8-8,8s-8-3.584-8-8c0-4.416,3.584-8,8-8
				S140.736,397.056,140.736,401.472z M206.104,463.784c-10.824,1.264-21.784-0.184-31.784-4.32
				c-1.904-0.784-3.712-1.768-5.528-2.736c4.12,0.448,8.216,0.744,11.944,0.744c40.296,0,65.432-31.968,70-38.28
				c8.632-7.416,20.024-10.76,31.328-9.232C265.912,452.904,217.168,462.224,206.104,463.784z M391.296,391
				c-2.928,10.832-8.584,20.712-16.448,28.584c-7.96,7.96-17.976,13.688-28.96,16.576l-2.672,0.696l-1.664,2.2
				c-6.872,9.04-16,16.104-26.4,20.408c-10.4,4.304-21.84,5.776-33.096,4.224l-2.736-0.368l-2.392,1.392
				c-12.504,7.304-27.272,9.904-41.416,7.888c23.528-8.592,53.768-26.872,64.2-65.2c4.296-8.744,11.56-15.608,20.496-19.32
				c4.088-1.688,8.464-2.68,13.008-2.936l6.312-0.352c-4.184,4.328-6.792,10.2-6.792,16.68c0,13.232,10.768,24,24,24
				s24-10.768,24-24s-10.768-24-24-24c-6.336,0-12.072,2.512-16.36,6.544l0.376-6.368c0.592-9.928,4.664-19.144,11.464-25.944
				c2.896-2.896,6.448-5.352,10.848-7.504l6.4-3.12l-2.36-6.72c-3.272-9.336-3.008-19.472,0.744-28.528
				c0.712-1.728,1.616-3.368,2.584-4.984c9.336,8.352,26.304,27.024,26.304,52.624C396.736,367.056,392.12,387.456,391.296,391z
				 M348.736,401.472c0-4.416,3.584-8,8-8c4.416,0,8,3.584,8,8c0,4.416-3.584,8-8,8C352.32,409.472,348.736,405.888,348.736,401.472
				z M414.728,359.888c-0.792,1.904-1.768,3.712-2.736,5.528c0.448-4.12,0.744-8.216,0.744-11.944
				c0-40.216-31.832-65.328-38.232-69.968c-6.28-7.28-9.768-16.48-9.768-26.032c0-1.776,0.208-3.56,0.456-5.336
				c42.968,16.136,52.288,64.904,53.856,75.968C420.312,338.928,418.864,349.888,414.728,359.888z M427.96,298.936
				c-8.552-23.56-26.832-53.976-65.288-64.448c-7.752-3.808-13.888-10.04-17.84-17.8l41.456-41.456
				c2.184,4.192,3.944,8.552,5.136,13.088l0.696,2.672l2.2,1.664c9.04,6.872,16.104,16,20.408,26.4
				c4.304,10.4,5.776,21.84,4.224,33.096l-0.368,2.736l1.392,2.392c5.728,9.8,8.76,20.936,8.76,32.192
				C428.736,292.648,428.432,295.808,427.96,298.936z"/>
			<rect x="308.736" y="65.472" width="16" height="16"/>
		</g>
	</g>
</g>
</svg>