<?xml version="1.0" encoding="iso-8859-1"?>
<!-- Uploaded to: SVG Repo, www.svgrepo.com, Generator: SVG Repo Mixer Tools -->
<!DOCTYPE svg PUBLIC "-//W3C//DTD SVG 1.1//EN" "http://www.w3.org/Graphics/SVG/1.1/DTD/svg11.dtd">
<svg fill="#000000" version="1.1" id="Capa_1" xmlns="http://www.w3.org/2000/svg" xmlns:xlink="http://www.w3.org/1999/xlink" 
	 width="800px" height="800px" viewBox="0 0 36.354 36.354"
	 xml:space="preserve">
<g>
	<g>
		<path d="M35.027,30.795l-7.063-7.062h5.883l-7.252-7.25h4.84l-6.041-6.041h3.226L18.177,0L7.736,10.44h3.227l-6.041,6.041H9.76
			l-7.249,7.25h5.881l-7.065,7.063h15.827l-1.131,5.559h5.981l-1.131-5.559H35.027z M10.805,22.731H4.924l7.249-7.25H7.335
			l6.041-6.041h-3.227l8.028-8.026l8.026,8.026h-3.226l6.041,6.041h-4.84l7.252,7.25h-5.883l7.063,7.063H3.741L10.805,22.731z"/>
		<circle cx="16.266" cy="7.824" r="1.383"/>
		<circle cx="20.518" cy="13.202" r="1.998"/>
		<circle cx="14.986" cy="18.247" r="1.204"/>
		<circle cx="22.658" cy="20.59" r="0.909"/>
		<circle cx="12.317" cy="26.212" r="0.608"/>
		<circle cx="19.015" cy="26.029" r="2.583"/>
	</g>
</g>
</svg>