<?xml version="1.0" encoding="iso-8859-1"?>
<!-- Uploaded to: SVG Repo, www.svgrepo.com, Generator: SVG Repo Mixer Tools -->
<!DOCTYPE svg PUBLIC "-//W3C//DTD SVG 1.1//EN" "http://www.w3.org/Graphics/SVG/1.1/DTD/svg11.dtd">
<svg fill="#000000" version="1.1" id="Capa_1" xmlns="http://www.w3.org/2000/svg" xmlns:xlink="http://www.w3.org/1999/xlink" 
	 width="800px" height="800px" viewBox="0 0 27.77 27.77" xml:space="preserve"
	>
<g>
	<g>
		<path d="M25.193,20.103c-3.406-1.096-3.859-2.957-3.559-4.678c-0.965,0.799-1.924,0.971-2.785,0.799
			c0.045,0.191,0.073,0.391,0.073,0.597c0,1.467-1.188,2.657-2.656,2.657c-1.466,0-2.654-1.19-2.654-2.657
			c0-1.466,1.188-2.655,2.654-2.655c0.44,0,0.849,0.117,1.214,0.306c0.316-1.034,1.229-1.889,2.188-2.516
			c-1.263-0.537-3.026-2.616-2.366-5.579c-2.394-0.314-2.615-2.805-3.373-4.791c-0.565,1.26-0.911,4.696-3.527,5.011
			c0.755,3.499-0.629,4.821-2.271,5.42c1.675,0.624,2.244,1.871,2.269,3.114c0.323-0.462,0.833-0.783,1.438-0.783
			c0.608,0,1.114,0.321,1.438,0.783c-0.26,0.459-0.42,0.98-0.442,1.541c-0.76,0.061-1.421,0.432-1.883,0.985
			c-0.53-0.31-0.902-0.86-0.902-1.521c0-0.127,0.048-0.238,0.072-0.356c-1.201,0.708-2.739,0.315-4.013-0.326
			c0.169,1.36-0.751,3.931-3.646,4.838C3.388,22.521,1.342,23.958,0,25.606c1.375-0.139,4.523-1.559,6.104,0.55
			c2.651-2.403,4.49-1.865,5.829-0.744c-0.336-1.997,0.729-3.164,1.997-3.752c1.43,0.597,1.905,2.259,1.991,3.784
			c1.097-0.825,3.776-1.312,6.015,0.74c1.469-1.916,3.736-0.862,5.834-0.526C26.96,24.543,24.158,22.526,25.193,20.103z
			 M13.029,21.466c-1.14,0-2.064-0.927-2.064-2.066c0-1.086,0.845-1.949,1.906-2.033c0.192,1.202,1.001,2.201,2.101,2.646
			C14.704,20.849,13.953,21.466,13.029,21.466z"/>
		<path d="M17.059,15.668c-0.263,0-0.479,0.216-0.479,0.481s0.217,0.48,0.479,0.48c0.268,0,0.48-0.216,0.48-0.48
			C17.539,15.884,17.326,15.668,17.059,15.668z"/>
		<path d="M12.219,19.638c-0.262,0-0.479,0.217-0.479,0.48c0,0.266,0.218,0.482,0.479,0.482c0.268,0,0.48-0.217,0.48-0.482
			C12.699,19.854,12.487,19.638,12.219,19.638z"/>
		<circle cx="11.408" cy="15.309" r="0.481"/>
	</g>
</g>
</svg>