<?xml version="1.0" encoding="iso-8859-1"?>
<!-- Uploaded to: SVG Repo, www.svgrepo.com, Generator: SVG Repo Mixer Tools -->
<!DOCTYPE svg PUBLIC "-//W3C//DTD SVG 1.1//EN" "http://www.w3.org/Graphics/SVG/1.1/DTD/svg11.dtd">
<svg fill="#000000" version="1.1" id="Capa_1" xmlns="http://www.w3.org/2000/svg" xmlns:xlink="http://www.w3.org/1999/xlink" 
	 width="800px" height="800px" viewBox="0 0 25.624 25.625"
	 xml:space="preserve">
<g>
	<g>
		<path d="M12.812,0C6.358,0,1.108,5.25,1.108,11.703c0,4.021,2.04,7.574,5.136,9.682l1.346-2.331
			c-1.485-0.287-2.06-1.117-2.06-1.856v-3.565c0-0.514,0.279-1.184,0.961-1.607c-0.005-0.107-0.017-0.212-0.017-0.322
			c0-3.494,2.842-6.336,6.336-6.336c3.493,0,6.337,2.843,6.337,6.336c0,0.124-0.014,0.246-0.02,0.369
			c0.684,0.42,0.964,1.065,0.964,1.561v3.565c0,0.739-0.574,1.569-2.06,1.856l1.346,2.331c3.098-2.108,5.137-5.661,5.137-9.682
			C24.517,5.25,19.267,0,12.812,0z M3.794,13.069c-0.743,0-1.341-0.6-1.341-1.342c-0.009-0.743,0.599-1.343,1.333-1.343
			c0.743-0.008,1.342,0.59,1.35,1.333C5.136,12.46,4.538,13.06,3.794,13.069z M7.373,6.287c-0.269,0.26-0.607,0.394-0.957,0.394
			c-0.339,0-0.679-0.125-0.948-0.384c-0.519-0.528-0.528-1.377,0-1.905c0.519-0.519,1.369-0.519,1.896,0
			c0.528,0.519,0.528,1.368,0,1.896H7.373z M12.786,4.025c-0.743,0-1.342-0.599-1.342-1.342c0-0.733,0.599-1.342,1.333-1.342
			c0.743,0,1.35,0.599,1.35,1.342S13.528,4.025,12.786,4.025z M19.164,6.646c-0.34,0-0.681-0.134-0.94-0.394
			c-0.527-0.519-0.527-1.369-0.008-1.896c0.519-0.529,1.368-0.529,1.896-0.01c0.528,0.529,0.528,1.378,0.009,1.897
			C19.861,6.512,19.514,6.646,19.164,6.646z M23.172,11.682c0,0.008,0,0.019,0,0.019c0,0.743-0.6,1.341-1.342,1.341
			c-0.743,0-1.341-0.599-1.341-1.341c0,0,0-0.011,0-0.019v-0.009c0-0.743,0.598-1.351,1.341-1.351c0.734,0,1.342,0.6,1.342,1.332
			c0,0,0,0,0,0.011C23.172,11.673,23.172,11.673,23.172,11.682z"/>
		<path d="M10.717,23.209c0.682,0.124,1.379,0.198,2.095,0.198c0.715,0,1.413-0.074,2.095-0.198l-2.095-3.629L10.717,23.209z"/>
		<polygon points="8.837,18.681 5.696,24.125 7.892,23.318 8.292,25.625 12.299,18.681 		"/>
		<polygon points="13.326,18.681 17.334,25.625 17.734,23.318 19.93,24.125 16.787,18.681 		"/>
		<path d="M16.888,18.272c1.765,0,2.312-0.634,2.312-1.074v-3.565c0-0.437-0.531-1.257-2.312-1.071
			c-1.757,0.186-4.075,2.143-4.075,2.143s-2.331-1.882-4.075-2.143c-1.823-0.271-2.312,0.635-2.312,1.071v3.565
			c0,0.44,0.547,1.074,2.312,1.074c1.762,0,4.075,0,4.075,0S15.122,18.272,16.888,18.272z M16.888,13.303
			c1.29-0.185,1.726,0.377,1.726,0.702c0,0.324-0.454,0.698-1.726,0.698h-2.898C14.874,14.022,16.08,13.417,16.888,13.303z
			 M8.737,14.704c-1.271,0-1.726-0.374-1.726-0.698c0-0.325,0.456-0.864,1.726-0.702c0.806,0.104,2.012,0.719,2.897,1.4H8.737z
			 M11.993,16.486c0-0.454,0.367-0.82,0.82-0.82s0.82,0.367,0.82,0.82s-0.367,0.82-0.82,0.82S11.993,16.939,11.993,16.486z"/>
	</g>
</g>
</svg>